<svg viewBox="0 0 128 128" xmlns="http://www.w3.org/2000/svg">

  <style>
    #c {
      transform-origin: 50% 50%;
      animation: c 6s linear infinite;
    }

    @keyframes c {
      0% {
        transform: rotate(0deg);
      }

      20%,
      40%,
      60%,
      80%,
      100% {
        transform: rotate(360deg);
      }
    }
  </style>
  <path fill="#659AD3"
    d="M115.4 30.7L67.1 2.9c-.8-.5-1.9-.7-3.1-.7-1.2 0-2.3.3-3.1.7l-48 27.9c-1.7 1-2.9 3.5-2.9 5.4v55.7c0 1.1.2 2.4 1 3.5l106.8-62c-.6-1.2-1.5-2.1-2.4-2.7z">
  </path>
  <path fill="#03599C"
    d="M10.7 95.3c.5.8 1.2 1.5 1.9 1.9l48.2 27.9c.8.5 1.9.7 3.1.7 1.2 0 2.3-.3 3.1-.7l48-27.9c1.7-1 2.9-3.5 2.9-5.4V36.1c0-.9-.1-1.9-.6-2.8l-106.6 62z">
  </path>
  <path id="c" fill="#fff"
    d="M63.445 26.035c-20.867 0-37.843 16.977-37.843 37.844s16.976 37.844 37.843 37.844c13.465 0 26.024-7.247 32.77-18.91L79.84 73.335c-3.38 5.84-9.66 9.465-16.395 9.465-10.433 0-18.922-8.488-18.922-18.922 0-10.434 8.49-18.922 18.922-18.922 6.73 0 13.017 3.629 16.39 9.465l16.38-9.477c-6.75-11.664-19.305-18.91-32.77-18.91z" />

</svg>