<svg xmlns="http://www.w3.org/2000/svg" viewBox="0 0 128 128">
    <style>
        .sharp {
            opacity: 0;
            transform: translate(0, 0) scale(0);
            transform-origin: center;
            animation: fadeMoveIn 6s linear infinite;
        }

        #c {
            transform-origin: 50% 50%;
            animation: c 6s linear infinite;
        }

        @keyframes c {
            0% {
                transform: rotate(0deg);
            }

            20%,
            40%,
            60%,
            80%,
            100% {
                transform: rotate(360deg);
            }
        }

        /* .plus2 {
            animation-delay: 0.3s;
        } */

        @keyframes fadeMoveIn {
            0% {
                opacity: 0;
                transform: translate(-25%, 0);
            }

            20% {
                opacity: 0;
                transform: translate(-10%, 0);
            }

            40%,
            60%,
            80%,
            100% {
                opacity: 1;
                transform: translate(0, 0);
            }
        }
    </style>
    <path fill="#9B4F96"
        d="M115.4 30.7L67.1 2.9c-.8-.5-1.9-.7-3.1-.7-1.2 0-2.3.3-3.1.7l-48 27.9c-1.7 1-2.9 3.5-2.9 5.4v55.7c0 1.1.2 2.4 1 3.5l106.8-62c-.6-1.2-1.5-2.1-2.4-2.7z" />
    <path fill="#68217A"
        d="M10.7 95.3c.5.8 1.2 1.5 1.9 1.9l48.2 27.9c.8.5 1.9.7 3.1.7 1.2 0 2.3-.3 3.1-.7l48-27.9c1.7-1 2.9-3.5 2.9-5.4V36.1c0-.9-.1-1.9-.6-2.8l-106.6 62z" />
    <!-- C -->
    <path id="c" fill="#fff"
        d="M85.3 76.1C81.1 83.5 73.1 88.5 64 88.5c-13.5 0-24.5-11-24.5-24.5s11-24.5 24.5-24.5c9.1 0 17.1 5 21.3 12.5l13-7.5c-6.8-11.9-19.6-20-34.3-20-21.8 0-39.5 17.7-39.5 39.5s17.7 39.5 39.5 39.5c14.6 0 27.4-8 34.2-19.8l-12.9-7.6z" />
    <!-- # symbol as paths -->
    <path class="sharp" fill="#fff"
        d="M97 61.9h-2.4v4.7h2.4l-1.2 6h4.8l1.2-6h3.8l-1.2 6h4.9l1.2-6h5.1v-4.7h-4.2l.9-4.3h3.3v-4.7h-2.4l1.2-6.1h-4.8l-1.2 6.1h-3.8l1.2-6.1h-4.9l-1.2 6.1h-5.1v4.7h4.2l-.9 4.3zm4.8 0l.9-4.3h3.8l-.9 4.3h-3.8z" />
</svg>