<svg xmlns="http://www.w3.org/2000/svg" viewBox="0 0 145 130" class="w-11 h-11">
    <defs>
        <radialGradient id="logosFfmpeg0" cx="19.932%" cy="18.852%" r="50.648%" fx="19.932%" fy="18.852%"
            gradientTransform="matrix(.96523 0 0 1 .007 0)">
            <stop offset="0%" stop-color="#FFF"></stop>
            <stop offset="100%" stop-color="#007808"></stop>
        </radialGradient>
    </defs>
    <path fill="#0B4819" d="M1.166 28.205V11.584l11.157 3.844V30.89zm8.997 68.329v-61.8l10.664 2.256v57.436z"></path>
    <path fill="#105C80"
        d="M62.325 11.557L34.916 42.992v13.376l40.651-45.836l64.387-4.984l-94.709 98.717l12.609.663l68.789-70.359v66.5l-7.642 7.183l19.381 1.047v18.405l-60.794-4.708l30.99-30.064V78.115l-44.305 43.849l-53.052-4.101l85.096-91.515l-14.004.757l-61.486 67.321V36.99l5.824-6.876l-14.328.776V15.428z">
    </path>
    <path fill="#0B4819" d="m10.163 34.734l6.168-7.426l10.32 2.806l-5.824 6.876z"></path>
    <path fill="#084010" d="m25.102 41.151l9.814 1.841v13.376l-9.814-.803z"></path>
    <path fill="#0C541E" d="m36.089 107.23l9.156-2.965l12.609.663l-8.32 3.078z"></path>
    <path fill="#1A5C34" d="m54.311 7.085l8.014 4.472l-27.409 31.435l-9.814-1.841z"></path>
    <path fill="#0B4819" d="m25.102 55.565l43.384-49.68l7.081 4.647l-40.651 45.836z"></path>
    <path fill="#1A5C34" d="m75.724 23.797l6.589 3.308l-61.486 67.321l-10.664 2.108z"></path>
    <path fill="#0B4819" d="m0 121.688l90.787-98.78l5.53 3.44l-85.096 91.515z"></path>
    <path fill="#1A5C34" d="m104.016 79.105l4.562-.99l-44.305 43.849l-7.879 4.499z"></path>
    <path fill="#0B4819" d="M104.016 95.21V79.105l4.562-.99v14.817z"></path>
    <path fill="#0B4819" d="m70.656 127.667l33.36-32.457l4.562-2.278l-30.99 30.064z"></path>
    <path fill="#13802D" d="m123.568 104.132l-8.281 7.781l3.714-3.661l7.642-7.183z"></path>
    <path fill="#0B4819" d="m49.534 108.006l74.034-76.297l3.075 2.86l-68.789 70.359z"></path>
    <path fill="#084010" d="m123.568 31.709l3.075 2.86v66.5l-3.075 3.063zm12.754 81.448l2.06-3.858v18.405l-2.06 5.525z">
    </path>
    <path fill="#1A5C34" d="m138.029 0l1.925 5.548l-94.709 98.717l-9.156 2.965z"></path>
    <path fill="url(#logosFfmpeg0)"
        d="M54.311 7.085L25.102 41.151v14.414l43.384-49.68L138.029 0L36.089 107.23l13.445.776l74.034-76.297v72.423l-8.281 7.781l21.035 1.244v20.072l-65.666-5.562l33.36-32.457V79.105l-47.622 47.358L0 121.688l90.787-98.78l-15.063.889l-65.561 72.737v-61.8l6.168-7.426l-15.165.897V11.584z">
    </path>
</svg>