<?xml version="1.0" encoding="UTF-8"?>
<svg version="1.1" viewBox="0 0 2048 2048" width="128" height="128" xmlns="http://www.w3.org/2000/svg">
<path transform="translate(0)" d="m0 0h2048v2048h-2048z" fill="#FEFEFE"/>
<path transform="translate(0)" d="m0 0h2048v2048h-2048zm1837 128-517 1h-1188l-3 2-1 9v150l1 85 1 312 1 217v542l-1 72-2 244v154l1 2h239l1549-1 2-3v-1785l-23-1z"/>
<path transform="translate(1583,1438)" d="m0 0h24l18 1 6 1 1 2v76h128l32 1v201l-1 7-7 1-96 1-105-1-1-2v-287z"/>
<path transform="translate(830,1518)" d="m0 0h162l48 1v69l-1 139-2 1-21 1h-99l-86-1-1-4v-114l1-12 1-1h160v-19l-1-7-6-1h-103l-51-1-1-1z"/>
<path transform="translate(1255,1517)" d="m0 0 28 1 12 1 1 1 1 7v36l-1 244-4 1-25 1h-60l-106-1-14-1-1-4v-44l1-1 157-1 3-1v-18l-2-8h-41l-99-1-18-1-1-1v-208h50l1 1v34l-1 51v60l1 12 6 1h103v-159l1-1z"/>
<path transform="translate(576,1518)" d="m0 0h183l25 1v49l-8 1-151 1v157l-2 1h-49v-169l1-40z"/>
<path transform="translate(1344,1438)" d="m0 0h44l5 2v36l-1 117v60l1 26 21-1h24l1 1v46l-1 1-9 1-54 1h-14l-19-1v-242l1-46z"/>
<path transform="translate(1633,1568)" d="m0 0h103l7 1v70l-1 37-5 2h-105l-1-2v-83l1-22z" fill="#FEFEFE"/>
<path transform="translate(1489,1517)" d="m0 0h15l23 1 9 1 1 1v206l-1 1h-50l-1-4v-66l1-108 1-31z"/>
<path transform="translate(978,1649)" d="m0 0h11l2 1 1 4v16l-2 6-1 1-108 1-2-3v-19l2-6z" fill="#FEFEFE"/>
<path transform="translate(1488,1437)" d="m0 0h24l22 2 1 1 1 7v41l-1 1h-38l-10-1v-50z"/>
</svg>
