<?xml version="1.0" encoding="UTF-8"?>
<!DOCTYPE svg PUBLIC "-//W3C//DTD SVG 1.1//EN" "http://www.w3.org/Graphics/SVG/1.1/DTD/svg11.dtd">
<svg xmlns="http://www.w3.org/2000/svg" version="1.1" width="128px" height="128px"
        style="shape-rendering:geometricPrecision; text-rendering:geometricPrecision; image-rendering:optimizeQuality; fill-rule:evenodd; clip-rule:evenodd"
        xmlns:xlink="http://www.w3.org/1999/xlink">
        <g>
                <path style="opacity:1" fill="#000000"
                        d="M -0.5,-0.5 C 42.1667,-0.5 84.8333,-0.5 127.5,-0.5C 127.5,42.1667 127.5,84.8333 127.5,127.5C 84.8333,127.5 42.1667,127.5 -0.5,127.5C -0.5,84.8333 -0.5,42.1667 -0.5,-0.5 Z" />
        </g>
        <g>
                <path style="opacity:1" fill="#f4f4f4"
                        d="M 7.5,7.5 C 44.8333,7.5 82.1667,7.5 119.5,7.5C 119.5,44.8333 119.5,82.1667 119.5,119.5C 82.1667,119.5 44.8333,119.5 7.5,119.5C 7.5,82.1667 7.5,44.8333 7.5,7.5 Z" />
        </g>
        <g>
                <path style="opacity:1" fill="#000000"
                        d="M 83.5,89.5 C 84.5,89.5 85.5,89.5 86.5,89.5C 86.5,94.5 86.5,99.5 86.5,104.5C 87.5,104.5 88.5,104.5 89.5,104.5C 89.5,105.5 89.5,106.5 89.5,107.5C 87.5,107.5 85.5,107.5 83.5,107.5C 83.5,101.5 83.5,95.5 83.5,89.5 Z" />
        </g>
        <g>
                <path style="opacity:1" fill="#000000"
                        d="M 92.5,89.5 C 93.5,89.5 94.5,89.5 95.5,89.5C 95.5,90.5 95.5,91.5 95.5,92.5C 94.5,92.5 93.5,92.5 92.5,92.5C 92.5,91.5 92.5,90.5 92.5,89.5 Z" />
        </g>
        <g>
                <path style="opacity:1" fill="#000100"
                        d="M 98.5,89.5 C 99.5,89.5 100.5,89.5 101.5,89.5C 101.5,91.1667 101.5,92.8333 101.5,94.5C 104.833,94.5 108.167,94.5 111.5,94.5C 111.5,98.8333 111.5,103.167 111.5,107.5C 107.167,107.5 102.833,107.5 98.5,107.5C 98.5,101.5 98.5,95.5 98.5,89.5 Z" />
        </g>
        <g>
                <path style="opacity:1" fill="#000000"
                        d="M 35.5,94.5 C 39.8333,94.5 44.1667,94.5 48.5,94.5C 48.5,95.5 48.5,96.5 48.5,97.5C 45.1667,97.5 41.8333,97.5 38.5,97.5C 38.5,100.833 38.5,104.167 38.5,107.5C 37.5,107.5 36.5,107.5 35.5,107.5C 35.5,103.167 35.5,98.8333 35.5,94.5 Z" />
        </g>
        <g>
                <path style="opacity:1" fill="#000000"
                        d="M 51.5,94.5 C 55.8333,94.5 60.1667,94.5 64.5,94.5C 64.5,98.8333 64.5,103.167 64.5,107.5C 60.1667,107.5 55.8333,107.5 51.5,107.5C 51.5,104.833 51.5,102.167 51.5,99.5C 64.8333,98.8333 64.8333,98.1667 51.5,97.5C 51.5,96.5 51.5,95.5 51.5,94.5 Z" />
        </g>
        <g>
                <path style="opacity:1" fill="#000000"
                        d="M 67.5,94.5 C 68.5,94.5 69.5,94.5 70.5,94.5C 70.5,97.8333 70.5,101.167 70.5,104.5C 72.8333,104.5 75.1667,104.5 77.5,104.5C 77.5,101.167 77.5,97.8333 77.5,94.5C 78.5,94.5 79.5,94.5 80.5,94.5C 80.5,100.5 80.5,106.5 80.5,112.5C 76.1667,112.5 71.8333,112.5 67.5,112.5C 67.5,111.5 67.5,110.5 67.5,109.5C 80.8333,108.833 80.8333,108.167 67.5,107.5C 67.5,103.167 67.5,98.8333 67.5,94.5 Z" />
        </g>
        <g>
                <path style="opacity:1" fill="#000000"
                        d="M 92.5,94.5 C 93.5,94.5 94.5,94.5 95.5,94.5C 95.5,98.8333 95.5,103.167 95.5,107.5C 94.5,107.5 93.5,107.5 92.5,107.5C 92.5,103.167 92.5,98.8333 92.5,94.5 Z" />
        </g>
        <g>
                <path style="opacity:1" fill="#f4f5f4"
                        d="M 101.5,97.5 C 103.833,97.5 106.167,97.5 108.5,97.5C 108.5,99.8333 108.5,102.167 108.5,104.5C 106.167,104.5 103.833,104.5 101.5,104.5C 101.5,102.167 101.5,99.8333 101.5,97.5 Z" />
        </g>
        <g>
                <path style="opacity:1" fill="#f4f5f4"
                        d="M 54.5,102.5 C 56.924,102.192 59.2573,102.526 61.5,103.5C 60.3333,103.833 59.1667,104.167 58,104.5C 56.3189,104.392 55.1522,103.725 54.5,102.5 Z" />
        </g>
</svg>